# xmcd
#
# Track frame offsets:
#	150
#	16992
#	32767
#	50080
#	63312
#	76790
#	93060
#	115205
#	133215
#	149060
#	166335
#	186305
#
# Disc length: 2742 seconds
#
# Revision: 1
# Processed by: cddbd v1.5.1PL0 Copyright (c) Steve Scherf et al.
# Submitted via: audiograbber 1.83.01
#
DISCID=a40ab40c
DTITLE=Various Artist - TEG6004
DYEAR=1900
DGENRE=Karaoke
TTITLE0=Garth Brooks - Friends In Low Places (ext vers)
TTITLE1=Reba McEntire - Don't Touch Me There
TTITLE2=George Strait - Chill Of An Early Fall
TTITLE3=Aaron Tippin - There Aint Nothing Wrong With The Radio
TTITLE4=Kentucky Headhunters - Dumas Walker
TTITLE5=Tanya Tucker - Down To My Last Teardrop
TTITLE6=Wynonna - She Is His Only Need
TTITLE7=Travis Tritt - Nothing Short Of Dying
TTITLE8=Patty Loveless - Jealous Bone/Working Man
TTITLE9=Trisha Yearwood - The Woman Before Me
TTITLE10=Reba McEntire - The Night The Lights Went Out In Georgia
TTITLE11=Garth Brooks - The Dance
EXTD=
EXTT0=
EXTT1=
EXTT2=
EXTT3=
EXTT4=
EXTT5=
EXTT6=
EXTT7=
EXTT8=
EXTT9=
EXTT10=
EXTT11=
PLAYORDER=
